<?xml version="1.0" standalone="no"?>
<!DOCTYPE svg PUBLIC "-//W3C//DTD SVG 20010904//EN"
 "http://www.w3.org/TR/2001/REC-SVG-20010904/DTD/svg10.dtd">
<svg version="1.0" xmlns="http://www.w3.org/2000/svg"
 width="70.000000pt" height="70.000000pt" viewBox="0 0 70.000000 70.000000"
 preserveAspectRatio="xMidYMid meet">
<metadata>
Created by potrace 1.14, written by Peter Selinger 2001-2017
</metadata>
<g transform="translate(0.000000,70.000000) scale(0.100000,-0.100000)"
fill="#000000" stroke="none">
<path d="M0 350 l0 -350 150 0 151 0 6 30 c4 23 15 35 39 45 19 8 34 19 34 24
0 6 15 11 34 11 26 0 41 8 66 36 17 20 34 33 37 30 12 -12 53 38 62 73 5 20 6
77 3 126 l-7 90 -30 2 c-49 2 -51 3 -33 17 16 11 12 15 -37 32 -47 16 -55 22
-55 44 0 40 -16 85 -41 114 l-23 26 -178 0 -178 0 0 -350z"/>
<path d="M375 690 c3 -5 12 -10 20 -10 8 0 26 -15 41 -34 27 -33 28 -34 52
-18 18 12 25 13 31 3 5 -7 11 -12 15 -11 3 1 20 -2 37 -5 27 -6 30 -10 26 -34
-8 -40 13 -60 61 -58 l42 1 0 88 0 88 -166 0 c-107 0 -163 -3 -159 -10z m280
-111 c4 -11 4 -23 1 -26 -3 -4 -6 -1 -6 5 0 7 -7 12 -15 12 -8 0 -15 7 -15 15
0 23 28 18 35 -6z"/>
<path d="M673 485 c-3 -9 -3 -18 0 -21 9 -9 27 6 27 22 0 19 -19 18 -27 -1z"/>
<path d="M635 340 c-3 -5 1 -18 11 -27 15 -16 17 -16 30 2 16 22 18 35 4 35
-5 0 -10 -5 -10 -11 0 -8 -4 -8 -14 0 -10 8 -16 9 -21 1z"/>
<path d="M573 62 c-34 -3 -69 -32 -39 -32 9 0 16 -6 16 -14 0 -10 18 -14 75
-15 l75 -1 0 31 c0 23 -4 30 -17 28 -10 -1 -20 0 -23 1 -12 4 -58 6 -87 2z
m17 -38 c0 -8 -4 -14 -9 -14 -11 0 -22 26 -14 34 9 9 23 -3 23 -20z"/>
</g>
</svg>
